# xmcd CD database file
#
# Track frame offsets:
#	150
#	7620
#	16620
#	27857
#	37447
#	51082
#	60645
#	71552
#	80897
#	81197
#	91540
#	98792
#	108825
#	117960
#	126752
#	127052
#	133625
#	144557
#	151062
#	157642
#	157942
#	158242
#	159937
#	161595
#	167275
#	176930
#	181927
#	191755
#	200240
#	211990
#	222097
#	230992
#	243237
#	255292
#
# Disc length: 3565 seconds
#
# Revision: 2
# Processed by: cddbd v1.5.1PL0 Copyright (c) Steve Scherf et al.
# Submitted via: CDex 1.51
#
DISCID=ba0deb22
DTITLE=辻横由佳 - FIRE EMBLEM THE BEST Vol.1 Disc-2
DYEAR=1997
DGENRE=Game
TTITLE0=オープニング
TTITLE1=全体マップ 1章(ソフィアへ:アルムの旅立ち)
TTITLE2=ストーリー5 村
TTITLE3=YUKA TSUJIYOKO/アルム1
TTITLE4=YUKA TSUJIYOKO/セリカの旅立ち
TTITLE5=YUKA TSUJIYOKO/セリカ1
TTITLE6=YUKA TSUJIYOKO/BGM1(CP側)
TTITLE7=YUKA TSUJIYOKO/戦い1(プレイヤー側
TTITLE8=ファンファーレ3(戦闘開始)
TTITLE9=戦い2(CP側)
TTITLE10=戦闘マップ7 戦闘MAP BGM2(CP)
TTITLE11=出逢い
TTITLE12=全体マップ 3章(解放戦争:それぞれの道)
TTITLE13=YUKA TSUJIYOKO/セリカ2
TTITLE14=ファンファーレ2(仲間入り)
TTITLE15=ストーリー3 寺院・神殿
TTITLE16=YUKA TSUJIYOKO/全体マップ 4章(悲しみの大地)
TTITLE17=ストーリー4 塔
TTITLE18=戦い3(中ボス)
TTITLE19=ファンファーレ1(レベルアップ)
TTITLE20=味方 倒れる
TTITLE21=ライブの杖使用時
TTITLE22=オーバー
TTITLE23=ストーリー1 復活の森
TTITLE24=YUKA TSUJIYOKO/全体マップ 5章(再会、そして)
TTITLE25=ストーリー2 地下・通路
TTITLE26=戦闘マップ2 戦闘MAP 1_2(アルム2)
TTITLE27=戦い5(最終面・味方の攻撃)
TTITLE28=戦闘マップ5 最終MAP BGM(プレイヤー側)
TTITLE29=戦闘マップ8 最終MAP BGM(CP側)
TTITLE30=戦い4(最終ボス)
TTITLE31=城(マーチ)
TTITLE32=エンディング1
TTITLE33=エンディング2
EXTD=YEAR: 1997
EXTT0=
EXTT1=
EXTT2=
EXTT3=
EXTT4=
EXTT5=
EXTT6=
EXTT7=
EXTT8=
EXTT9=
EXTT10=
EXTT11=
EXTT12=
EXTT13=
EXTT14=
EXTT15=
EXTT16=
EXTT17=
EXTT18=
EXTT19=
EXTT20=
EXTT21=
EXTT22=
EXTT23=
EXTT24=
EXTT25=
EXTT26=
EXTT27=
EXTT28=
EXTT29=
EXTT30=
EXTT31=
EXTT32=
EXTT33=
PLAYORDER=
